<svg width="35" height="34" viewBox="0 0 35 34" fill="none" xmlns="http://www.w3.org/2000/svg">
<path d="M26.25 17.0254V11.8115H29.75V17.0254C29.1725 16.941 28.595 16.8735 28 16.8735C27.405 16.8735 26.8275 16.941 26.25 17.0254ZM11.375 13.4988C10.885 13.4988 10.5 13.87 10.5 14.3425V16.8735H21V14.3425C21 13.87 20.615 13.4988 20.125 13.4988H11.375ZM5.25 26.9976V11.8115H1.75V30.3723H18.1125C17.7275 29.3093 17.5 28.1788 17.5 26.9976H5.25ZM31.5 10.1241H0V0H31.5V10.1241ZM28 3.3747H3.5V6.7494H28V3.3747ZM35 25.1247L29.9425 24.7028L28 20.2482L26.0225 24.7028L21 25.1247L24.815 28.2969L23.625 33.0383L28 30.5242L32.2875 33.0383L31.15 28.2969L35 25.1247Z" fill="#D35B38"/>
</svg>
